<svg id="图层_1" data-name="图层 1" xmlns="http://www.w3.org/2000/svg" viewBox="0 0 66.17 66.17"><defs><style>.cls-1{fill:#00c56d;}.cls-2{fill:#fff;}</style></defs><title>公告</title><circle class="cls-1" cx="33.08" cy="33.08" r="33.08"/><path class="cls-2" d="M-200.35,13.05v16l.11.08,11.18,8.57V4.39Zm20.28-6.46h0a1.66,1.66,0,0,1-.58-2.29,1.67,1.67,0,0,1,2.29-.58h0a20.16,20.16,0,0,1,7,27.64,20.33,20.33,0,0,1-7,7,1.67,1.67,0,0,1-2.31-.44,1.66,1.66,0,0,1,.44-2.31l.16-.09a17.41,17.41,0,0,0,6-6.18A17.07,17.07,0,0,0-171.89,21a17,17,0,0,0-2.18-8.27A17.17,17.17,0,0,0-180.07,6.59Zm-22.28,6.78h-6.82V28.7h6.82Zm.42-3.33h0l13.47-10.3a1.68,1.68,0,0,1,1.09-.44A1.67,1.67,0,0,1-185.71,1V12.07a9.84,9.84,0,0,1,3.91,3,9.68,9.68,0,0,1,0,12,10,10,0,0,1-3.91,3V41.15h0a1.74,1.74,0,0,1-.36,1,1.67,1.67,0,0,1-2.33.32L-201.93,32h-8.91a1.65,1.65,0,0,1-1.62-1.66V11.71A1.66,1.66,0,0,1-210.8,10Zm16.22,4.26h0V27.8a8.16,8.16,0,0,0,2.34-2,7.76,7.76,0,0,0,0-9.53,7.74,7.74,0,0,0-2.34-2Z" transform="translate(223.58 12.03)"/></svg>